<?xml version="1.0" standalone="no"?>
<!DOCTYPE svg PUBLIC "-//W3C//DTD SVG 20010904//EN"
 "http://www.w3.org/TR/2001/REC-SVG-20010904/DTD/svg10.dtd">
<svg version="1.0" xmlns="http://www.w3.org/2000/svg"
 width="512.000000pt" height="512.000000pt" viewBox="0 0 512.000000 512.000000"
 preserveAspectRatio="xMidYMid meet">
<metadata>
Created by potrace 1.14, written by Peter Selinger 2001-2017
</metadata>
<g transform="translate(0.000000,512.000000) scale(0.100000,-0.100000)"
fill="#000000" stroke="none">
<path d="M3527 5089 c-92 -13 -247 -55 -362 -98 l-106 -39 -102 16 c-128 19
-465 21 -597 3 -295 -40 -675 -153 -910 -271 -459 -231 -834 -607 -1065 -1070
-103 -205 -181 -449 -222 -695 -25 -153 -25 -583 0 -730 76 -434 254 -829 516
-1143 62 -75 70 -88 81 -150 18 -99 72 -257 120 -353 58 -115 114 -191 203
-275 174 -166 389 -244 674 -244 191 0 353 31 575 110 106 38 117 40 230 40
333 0 685 85 1014 244 217 105 399 230 603 415 160 144 341 387 456 611 240
469 314 1015 210 1535 -14 66 -31 140 -40 165 -8 25 -13 34 -10 20 3 -14 16
-79 30 -146 67 -333 56 -688 -30 -1030 -126 -496 -403 -917 -828 -1258 -347
-279 -828 -455 -1242 -456 l-69 0 114 66 c218 126 434 281 630 449 580 499
990 1109 990 1471 0 70 -18 113 -65 151 -66 55 -128 68 -315 67 -238 0 -441
-40 -780 -154 -223 -74 -380 -140 -432 -182 -37 -29 -98 -110 -98 -130 0 -15
29 -8 205 52 429 145 1021 290 1188 290 137 0 184 -37 174 -138 -36 -343 -579
-1016 -1182 -1467 -201 -150 -348 -241 -540 -335 -229 -112 -245 -117 -342
-101 -230 38 -535 156 -775 299 -204 120 -536 413 -558 491 -13 47 -13 316 1
461 61 658 385 1443 847 2054 208 274 504 578 782 802 133 106 368 261 499
328 l111 57 98 -26 c197 -53 431 -159 611 -276 52 -33 89 -53 81 -44 -29 35
-240 166 -360 224 -69 33 -179 81 -245 105 -116 43 -119 45 -91 56 36 13 58 9
206 -42 178 -61 435 -190 547 -275 33 -24 33 -24 18 -60 -20 -47 -21 -48 -42
-32 -17 12 -17 12 -1 -6 17 -18 15 -24 -39 -125 -61 -116 -64 -140 -13 -140
47 0 104 59 149 154 21 45 41 89 45 99 5 17 12 14 59 -24 101 -83 304 -295
379 -395 243 -327 391 -696 450 -1119 16 -117 16 -445 0 -560 -37 -258 -97
-475 -190 -683 -28 -62 -47 -110 -42 -107 12 8 99 210 136 318 238 692 144
1455 -253 2061 -35 54 -90 131 -120 170 -72 91 -249 272 -334 342 l-67 54 19
62 c24 76 49 216 49 273 0 129 -90 222 -252 260 -69 16 -282 18 -381 4z m442
-139 c61 -34 83 -80 82 -169 0 -66 -23 -182 -41 -210 -6 -10 -22 -4 -66 26
-148 101 -356 203 -537 264 -63 21 -93 36 -84 41 22 12 155 46 242 62 51 10
131 14 220 13 129 -2 144 -4 184 -27z m-1036 -16 c26 -4 47 -10 47 -14 0 -18
-36 -19 -128 -5 -53 8 -146 19 -207 25 -101 8 -96 8 65 4 96 -2 196 -7 223
-10z m-90 -69 c13 -6 -16 -27 -114 -86 -404 -242 -765 -576 -1086 -1004 -595
-794 -886 -1524 -921 -2311 l-7 -159 -53 80 c-155 236 -277 570 -328 905 -25
159 -25 491 0 650 83 542 339 1034 706 1356 376 331 847 531 1360 578 66 6
422 -2 443 -9z m-2457 -1556 c-64 -214 -96 -442 -96 -680 0 -281 34 -500 116
-749 51 -154 165 -392 252 -526 50 -76 61 -101 63 -143 2 -28 2 -51 -1 -51
-10 1 -108 147 -169 252 -118 203 -214 457 -260 688 -35 178 -43 268 -43 455
0 267 35 486 118 738 42 126 57 138 20 16z m832 -2561 c275 -207 586 -350 922
-422 96 -21 102 -23 75 -33 -22 -7 -53 -5 -119 8 -430 86 -826 295 -1158 610
-47 44 -58 61 -58 86 0 17 -3 40 -7 50 -3 10 49 -36 118 -102 68 -66 170 -155
227 -197z m-262 31 c10 -12 55 -50 99 -84 244 -191 540 -340 830 -420 108 -30
117 -34 90 -41 -16 -5 -118 -9 -225 -9 -170 0 -207 3 -285 23 -145 37 -246 92
-341 187 -67 68 -89 99 -132 186 -71 146 -87 215 -36 158z m1824 -509 c-30 -5
-84 -8 -120 -7 l-65 1 75 6 c41 4 95 7 120 7 44 0 44 0 -10 -7z"/>
<path d="M4771 3260 c0 -8 4 -24 9 -35 5 -13 9 -14 9 -5 0 8 -4 24 -9 35 -5
13 -9 14 -9 5z"/>
<path d="M4690 1490 c-11 -22 -18 -40 -15 -40 2 0 14 18 25 40 11 22 18 40 15
40 -2 0 -14 -18 -25 -40z"/>
</g>
</svg>
